<?xml version="1.0" standalone="no"?>
<!DOCTYPE svg PUBLIC "-//W3C//DTD SVG 20010904//EN"
 "http://www.w3.org/TR/2001/REC-SVG-20010904/DTD/svg10.dtd">
<svg version="1.0" xmlns="http://www.w3.org/2000/svg"
 width="700.000000pt" height="700.000000pt" viewBox="0 0 700.000000 700.000000"
 preserveAspectRatio="xMidYMid meet">
<metadata>
Created by potrace 1.11, written by Peter Selinger 2001-2013
</metadata>
<g transform="translate(0.000000,700.000000) scale(0.100000,-0.100000)"
fill="#000000" stroke="none">
<path d="M4736 6723 c-2 -2 -1809 -11 -3215 -17 l-364 -1 -41 -60 c-23 -33
-82 -118 -131 -190 -49 -71 -183 -267 -299 -435 -115 -168 -228 -331 -249
-362 l-39 -58 95 -162 c53 -90 101 -168 107 -175 5 -7 10 -14 10 -16 0 -4 174
-298 345 -585 28 -46 58 -97 69 -115 10 -18 84 -142 164 -277 80 -135 210
-355 290 -490 79 -135 155 -261 167 -280 20 -31 121 -201 151 -255 6 -11 145
-245 309 -520 163 -275 304 -511 312 -525 8 -14 24 -42 36 -62 12 -20 43 -72
68 -115 25 -43 189 -319 364 -613 175 -294 323 -544 329 -555 71 -129 280
-465 286 -458 7 7 222 362 260 428 9 17 43 73 75 125 32 52 194 320 360 595
166 275 335 554 375 620 40 66 81 134 90 150 45 78 395 653 411 677 11 14 19
29 19 32 0 3 15 29 33 59 17 29 37 61 44 72 6 11 74 124 151 250 188 311 729
1206 867 1435 61 102 171 284 244 405 74 121 141 234 151 250 9 17 27 47 40
67 l22 38 -26 42 c-14 24 -178 277 -365 563 l-340 520 -586 0 c-323 0 -588 -1
-589 -2z"/>
</g>
</svg>
